<svg width="770" height="321" viewBox="0 0 770 321" fill="none" xmlns="http://www.w3.org/2000/svg">
<path d="M437.691 246.624C506.675 148.197 327.976 62.742 256.959 67.9261C263 67.485 269.478 67.8458 276.259 68.9236M448.64 178.186C456.078 199.359 454.029 222.425 437.305 246.305C442.497 227.197 438.787 206.597 429.224 186.443C419.186 165.287 402.682 144.582 383.16 126.526C363.638 108.469 341.079 93.0448 318.911 82.4597C307.067 76.8039 295.321 72.5236 284.201 69.9652C296.882 71.9362 310.912 75.5185 325.312 80.5042C351.157 89.4528 378.147 102.906 400.602 119.617C423.063 136.332 440.942 156.275 448.64 178.186ZM325.639 79.5593C312.043 74.852 298.753 71.3835 286.592 69.3391C300.449 70.7831 316.236 73.5203 332.62 77.5146C362.509 84.8011 394.338 96.2592 420.011 111.637C445.701 127.024 465.137 146.279 470.413 169.124C475.45 190.929 467.62 216.178 439.618 244.689C455.141 221.334 456.906 198.699 449.583 177.855C441.793 155.68 423.741 135.59 401.199 118.815C378.65 102.034 351.565 88.5359 325.639 79.5593ZM313.357 85.0564C303.364 78.7529 293.293 73.8495 283.37 70.8017C294.574 73.3208 306.46 77.6226 318.48 83.3621C340.551 93.9011 363.027 109.267 382.481 127.26C401.937 145.255 418.352 165.861 428.321 186.872C437.999 207.27 441.586 228.012 436.038 247.117C428.16 216.65 401.622 171.047 368.246 133.41C351.229 114.221 332.413 97.0779 313.357 85.0564Z" fill="white" stroke="#52783B"/>
<path d="M435.496 241.826C400.448 88.8941 79.4421 174.693 0 244C5.77242 238.964 12.647 234.166 20.4591 229.633M365.199 168.904C400.502 181.35 426.333 204.373 434.967 241.755C418.165 219.223 388.226 203.723 351.522 194.149C313.75 184.296 268.736 180.698 223.296 182.21C177.854 183.722 131.965 190.345 92.4369 200.949C68.6617 207.327 47.168 215.15 29.4525 224.178C48.167 213.341 71.4643 202.686 97.3951 193.168C139.437 177.735 188.353 165.305 235.786 159.917C283.228 154.529 329.14 156.191 365.199 168.904ZM97.0505 192.229C71.9301 201.45 49.2437 211.747 30.7771 222.264C50.3518 209.826 75.0332 196.481 102.519 183.87C147.394 163.28 199.702 144.665 249.391 135.156C299.097 125.644 346.098 125.26 380.419 141.037C397.566 148.919 411.548 160.836 421.134 177.674C430.219 193.633 435.372 214.041 435.498 239.681C426.354 202.981 400.496 180.287 365.531 167.96C329.27 155.176 283.186 153.527 235.674 158.923C188.153 164.321 139.158 176.772 97.0505 192.229ZM88.8596 208.329C66.7487 212.157 46.6824 217.656 29.825 225.111C47.4643 216.112 68.9134 208.295 92.696 201.915C132.144 191.333 177.957 184.719 223.33 183.209C268.704 181.699 313.617 185.294 351.27 195.116C388.127 204.73 417.952 220.291 434.491 242.793C388.248 222.457 300.237 205.421 213.676 201.916C169.855 200.142 126.381 201.834 88.8596 208.329Z" fill="white" stroke="#52783B"/>
<path d="M434.972 245.993C384.402 100.021 181.719 222.433 139.702 300.28C142.938 294.286 147.056 288.41 151.931 282.708M374.891 182.917C400.76 191.015 422.163 210.54 434.503 246.165C419.218 226.287 396.434 214.663 370.135 209.55C342.735 204.222 311.49 205.956 280.844 212.804C250.195 219.653 220.119 231.623 195.051 246.791C180.536 255.574 167.686 265.438 157.376 276.013C168.094 263.428 181.752 250.536 197.284 238.413C223.194 218.19 254.282 200.136 285.562 189.23C316.849 178.322 348.274 174.584 374.891 182.917ZM196.669 237.625C181.856 249.186 168.722 261.461 158.2 273.526C169.199 259.314 183.246 243.765 199.187 228.585C226.145 202.916 258.481 178.339 290.587 163.089C322.709 147.831 354.496 141.956 380.434 153.51C405.382 164.622 425.092 191.941 434.447 243.038C421.877 208.92 400.711 189.952 375.19 181.962C348.287 173.54 316.625 177.341 285.233 188.286C253.833 199.234 222.649 217.347 196.669 237.625ZM193.912 254.509C179.983 260.706 167.623 268.234 157.598 277.22C167.913 266.533 180.867 256.543 195.569 247.647C220.539 232.537 250.513 220.607 281.062 213.78C311.613 206.953 342.714 205.237 369.944 210.531C396.54 215.702 419.415 227.553 434.511 247.833C399.476 233.221 336.944 226.769 277.712 233.455C247.611 236.853 218.328 243.648 193.912 254.509Z" fill="white" stroke="#52783B"/>
<path d="M437.203 245.895C501.416 81.4069 715.402 229.698 756.468 320.22C753.465 313.602 749.585 307.071 744.944 300.685M506.877 176.319C478.028 184.447 453.361 205.855 437.656 246.11C474.205 201.059 542.901 196.664 607.729 214.563C640.779 223.688 672.884 238.619 699.318 256.976C715.193 268 729.036 280.269 739.809 293.268C728.738 278.002 714.215 262.181 697.453 247.21C670.409 223.057 637.572 201.149 604.08 187.375C570.581 173.598 536.481 167.979 506.877 176.319ZM698.119 246.464C714.174 260.803 728.202 275.939 739.126 290.647C727.842 273.521 713.037 254.548 695.99 235.939C668.142 205.537 634.348 176.146 600.224 157.388C566.085 138.621 531.72 130.551 502.652 142.592C474.593 154.214 451.287 184.655 437.896 242.816C453.741 204.202 478.117 183.383 506.606 175.356C536.509 166.932 570.853 172.628 604.46 186.45C638.075 200.275 671.006 222.25 698.119 246.464ZM700.084 265.817C715.487 273.773 728.947 283.289 739.521 294.49C728.754 281.364 714.811 268.952 698.748 257.797C672.411 239.508 640.41 224.623 607.463 215.527C542.197 197.507 473.452 202.248 437.53 247.869C476.674 232.695 545.485 228.024 609.864 238.216C642.532 243.388 674.093 252.392 700.084 265.817Z" fill="white" stroke="#52783B"/>
<path d="M435.742 244.187C441.635 68.8415 645.902 148.347 701.777 222.975C697.48 217.235 692.462 211.87 686.844 206.906M470.833 157.912C450.897 174.016 437.647 201.529 436.236 244.354C452.552 191.012 504.159 166.919 558.771 165.158C602.966 163.732 649.282 176.919 680.707 201.189C668.246 190.087 653.137 179.462 636.602 170.237C609.28 154.995 578.104 143.597 548.615 140.176C519.122 136.755 491.377 141.317 470.833 157.912ZM637.089 169.364C652.741 178.096 667.137 188.088 679.238 198.568C666.145 185.786 650.061 172.35 632.44 159.862C602.816 138.866 568.89 120.581 537.573 112.573C506.246 104.562 477.662 106.863 458.532 126.829C440.173 145.991 430.377 181.563 435.401 240.401C437.478 199.608 450.595 172.975 470.205 157.134C491.033 140.31 519.086 135.744 548.731 139.183C578.379 142.623 609.68 154.073 637.089 169.364ZM566.743 187.195C608.622 179.983 651.023 182.677 680.977 202.668C649.775 178.141 603.261 164.723 558.803 166.157C503.769 167.933 452.127 192.448 436.634 246.533C462.827 220.64 514.502 196.192 566.743 187.195Z" fill="white" stroke="#52783B"/>
<path d="M434.919 245.141C370.431 138.049 563.353 60.7477 636.979 70.8179C630.839 69.978 624.202 69.9137 617.204 70.5497M428.708 173.031C419.304 194.631 419.673 218.831 435.325 244.845C431.34 224.57 436.794 203.318 448.34 182.917C460.432 161.55 479.227 141.077 500.961 123.56C522.697 106.041 547.393 91.464 571.306 81.8996C584.297 76.704 597.071 72.9822 609.023 71.0767C595.506 72.2665 580.398 75.0947 564.783 79.4022C537.159 87.0223 507.993 99.2586 483.301 115.186C458.602 131.118 438.425 150.713 428.708 173.031ZM564.517 78.4382C579.307 74.3584 593.668 71.5946 606.678 70.2928C591.966 70.8563 575.055 72.6773 557.401 75.808C525.692 81.4313 491.639 91.2714 463.696 105.599C435.735 119.934 413.986 138.713 406.719 162.166C399.769 184.598 406.021 211.476 433.139 243.093C418.643 217.67 418.527 193.911 427.791 172.632C437.619 150.06 457.977 130.331 482.759 114.345C507.549 98.3552 536.81 86.0809 564.517 78.4382ZM576.896 84.9673C587.978 78.9613 599.032 74.4684 609.772 71.9712C597.749 73.8315 584.842 77.5631 571.678 82.8281C547.862 92.3531 523.252 106.878 501.589 124.338C479.923 141.8 461.224 162.181 449.21 183.409C437.533 204.044 432.192 225.439 436.527 245.727C447.061 214.522 478.255 168.736 515.972 131.707C535.186 112.844 556.114 96.2313 576.896 84.9673Z" fill="white" stroke="#52783B"/>
<path d="M436.546 245.709C457.604 113.158 261.318 128.221 199.577 171.974C204.701 168.343 210.515 165.222 216.877 162.601M417.917 173.692C433.409 190.058 441.174 213.45 436.046 245.668C429.303 202.15 386.401 172.909 337.493 159.705C312.407 152.932 285.684 150.359 261.327 152.242C247.995 153.273 235.359 155.641 224.083 159.394C236.523 154.209 250.965 149.875 266.369 146.753C293.345 141.283 323.222 139.537 350.369 143.407C377.523 147.278 401.889 156.76 417.917 173.692ZM266.17 145.772C251.649 148.716 237.957 152.737 225.969 157.543C239.237 151.22 254.916 145.084 271.705 139.878C301.632 130.598 335.034 124.286 364.524 125.114C394.031 125.942 419.503 133.912 433.74 153.061C447.333 171.344 450.798 199.977 437.489 242.742C441.694 211.849 433.883 189.104 418.643 173.004C402.4 155.845 377.782 146.305 350.51 142.417C323.23 138.528 293.237 140.285 266.17 145.772ZM257.416 157.78C245.463 157.132 234.054 157.96 223.618 160.606C234.991 156.733 247.819 154.29 261.404 153.239C285.643 151.365 312.251 153.926 337.233 160.671C386.568 173.99 429.337 203.549 435.265 247.244C415.502 222.134 372.643 192.601 326.943 174.491C303.643 165.258 279.574 158.981 257.416 157.78Z" fill="white" stroke="#52783B"/>
</svg>
