<svg width="361" height="261" viewBox="0 0 361 261" fill="none" xmlns="http://www.w3.org/2000/svg">
<path d="M153.199 90.1531C230.703 110.421 166.082 -44.5197 0.999993 34.4251M153.199 90.1531C235.741 82.6773 166.082 -44.5197 0.999993 34.4251M153.199 90.1531C220.046 43.3046 166.082 -44.5197 0.999993 34.4251M153.199 90.1531C175.869 33.8352 166.082 -44.5197 0.999993 34.4251M153.199 90.1531C135.18 39.3591 166.082 -44.5197 0.999993 34.4251" stroke="#FFA6C6"/>
<path d="M196.656 106.289C238.912 126.561 292.05 173.038 202.043 252M196.656 106.289C241.659 98.8114 292.05 173.038 202.043 252M196.656 106.289C233.102 59.43 292.05 173.038 202.043 252M196.656 106.289C209.016 49.9586 292.05 173.038 202.043 252M196.656 106.289C186.831 55.4837 292.05 173.038 202.043 252" stroke="#FFA6C6"/>
<path d="M196.656 106.289C238.912 126.561 345.506 -26.4622 255.5 52.5M196.656 106.289C241.659 98.8114 345.506 -26.4622 255.5 52.5M196.656 106.289C233.102 59.43 345.506 -26.4622 255.5 52.5M196.656 106.289C209.016 49.9586 345.506 -26.4622 255.5 52.5M196.656 106.289C186.831 55.4837 345.506 -26.4622 255.5 52.5" stroke="#FFA6C6"/>
<path d="M158.741 112.26C105.307 132.639 129.187 180.625 243 260M158.741 112.26C101.834 104.744 129.187 180.625 243 260M158.741 112.26C112.654 65.1561 129.187 180.625 243 260M158.741 112.26C143.111 55.635 129.187 180.625 243 260M158.741 112.26C171.164 61.189 129.187 180.625 243 260" stroke="#FFA6C6"/>
<path d="M145.285 96.2804C78.6181 116.614 -19 160.8 123 240M145.285 96.2804C74.2845 88.7804 -19 160.8 123 240M145.285 96.2804C87.7845 49.2804 -19 160.8 123 240M145.285 96.2804C125.785 39.7804 -19 160.8 123 240M145.285 96.2804C160.784 45.3222 -19 160.8 123 240" stroke="#FFA6C6"/>
<circle cx="125" cy="82" r="39" fill="#FFD7B1" fill-opacity="0.67"/>
<path d="M148.909 93.5C148.591 92.3939 148.144 91.4167 147.568 90.5682C146.992 89.7045 146.288 88.9773 145.455 88.3864C144.636 87.7803 143.697 87.3182 142.636 87C141.591 86.6818 140.432 86.5227 139.159 86.5227C136.78 86.5227 134.689 87.1136 132.886 88.2955C131.098 89.4773 129.705 91.197 128.705 93.4545C127.705 95.697 127.205 98.4394 127.205 101.682C127.205 104.924 127.697 107.682 128.682 109.955C129.667 112.227 131.061 113.962 132.864 115.159C134.667 116.341 136.795 116.932 139.25 116.932C141.477 116.932 143.379 116.538 144.955 115.75C146.545 114.947 147.758 113.818 148.591 112.364C149.439 110.909 149.864 109.189 149.864 107.205L151.864 107.5H139.864V100.091H159.341V105.955C159.341 110.045 158.477 113.561 156.75 116.5C155.023 119.424 152.644 121.682 149.614 123.273C146.583 124.848 143.114 125.636 139.205 125.636C134.841 125.636 131.008 124.674 127.705 122.75C124.402 120.811 121.826 118.061 119.977 114.5C118.144 110.924 117.227 106.682 117.227 101.773C117.227 98 117.773 94.6364 118.864 91.6818C119.97 88.7121 121.515 86.197 123.5 84.1364C125.485 82.0758 127.795 80.5076 130.432 79.4318C133.068 78.3561 135.924 77.8182 139 77.8182C141.636 77.8182 144.091 78.2045 146.364 78.9773C148.636 79.7348 150.652 80.8106 152.409 82.2045C154.182 83.5985 155.629 85.2576 156.75 87.1818C157.871 89.0909 158.591 91.197 158.909 93.5H148.909ZM176.574 78.4545V125H166.733V78.4545H176.574ZM182.898 86.5682V78.4545H221.125V86.5682H206.875V125H197.148V86.5682H182.898ZM227.42 125V78.4545H237.261V97.6591H257.239V78.4545H267.057V125H257.239V105.773H237.261V125H227.42ZM303.92 78.4545H313.761V108.682C313.761 112.076 312.951 115.045 311.33 117.591C309.723 120.136 307.473 122.121 304.58 123.545C301.686 124.955 298.314 125.659 294.466 125.659C290.602 125.659 287.223 124.955 284.33 123.545C281.436 122.121 279.186 120.136 277.58 117.591C275.973 115.045 275.17 112.076 275.17 108.682V78.4545H285.011V107.841C285.011 109.614 285.398 111.189 286.17 112.568C286.958 113.947 288.064 115.03 289.489 115.818C290.913 116.606 292.572 117 294.466 117C296.375 117 298.034 116.606 299.443 115.818C300.867 115.03 301.966 113.947 302.739 112.568C303.527 111.189 303.92 109.614 303.92 107.841V78.4545ZM321.858 125V78.4545H340.494C343.919 78.4545 346.775 78.9621 349.062 79.9773C351.35 80.9924 353.07 82.4015 354.222 84.2045C355.373 85.9924 355.949 88.053 355.949 90.3864C355.949 92.2045 355.585 93.803 354.858 95.1818C354.131 96.5455 353.131 97.6667 351.858 98.5455C350.6 99.4091 349.161 100.023 347.54 100.386V100.841C349.313 100.917 350.972 101.417 352.517 102.341C354.078 103.265 355.343 104.561 356.312 106.227C357.282 107.879 357.767 109.848 357.767 112.136C357.767 114.606 357.153 116.811 355.926 118.75C354.714 120.674 352.919 122.197 350.54 123.318C348.161 124.439 345.229 125 341.744 125H321.858ZM331.699 116.955H339.722C342.464 116.955 344.464 116.432 345.722 115.386C346.979 114.326 347.608 112.917 347.608 111.159C347.608 109.871 347.297 108.735 346.676 107.75C346.055 106.765 345.169 105.992 344.017 105.432C342.881 104.871 341.525 104.591 339.949 104.591H331.699V116.955ZM331.699 97.9318H338.994C340.343 97.9318 341.54 97.697 342.585 97.2273C343.646 96.7424 344.479 96.0606 345.085 95.1818C345.706 94.303 346.017 93.25 346.017 92.0227C346.017 90.3409 345.419 88.9848 344.222 87.9545C343.04 86.9242 341.358 86.4091 339.176 86.4091H331.699V97.9318Z" fill="black"/>
<path d="M153.199 90.1531C230.703 110.421 166.082 -44.5197 0.999993 34.4251M153.199 90.1531C235.741 82.6773 166.082 -44.5197 0.999993 34.4251M153.199 90.1531C220.046 43.3046 166.082 -44.5197 0.999993 34.4251M153.199 90.1531C175.869 33.8352 166.082 -44.5197 0.999993 34.4251M153.199 90.1531C135.18 39.3591 166.082 -44.5197 0.999993 34.4251" stroke="#FFA6C6"/>
<path d="M196.656 106.289C238.912 126.561 292.05 173.038 202.043 252M196.656 106.289C241.659 98.8114 292.05 173.038 202.043 252M196.656 106.289C233.102 59.43 292.05 173.038 202.043 252M196.656 106.289C209.016 49.9586 292.05 173.038 202.043 252M196.656 106.289C186.831 55.4837 292.05 173.038 202.043 252" stroke="#FFA6C6"/>
<path d="M196.656 106.289C238.912 126.561 345.506 -26.4622 255.5 52.5M196.656 106.289C241.659 98.8114 345.506 -26.4622 255.5 52.5M196.656 106.289C233.102 59.43 345.506 -26.4622 255.5 52.5M196.656 106.289C209.016 49.9586 345.506 -26.4622 255.5 52.5M196.656 106.289C186.831 55.4837 345.506 -26.4622 255.5 52.5" stroke="#FFA6C6"/>
<path d="M158.741 112.26C105.307 132.639 129.187 180.625 243 260M158.741 112.26C101.834 104.744 129.187 180.625 243 260M158.741 112.26C112.654 65.1561 129.187 180.625 243 260M158.741 112.26C143.111 55.635 129.187 180.625 243 260M158.741 112.26C171.164 61.189 129.187 180.625 243 260" stroke="#FFA6C6"/>
<path d="M145.285 96.2804C78.6181 116.614 -19 160.8 123 240M145.285 96.2804C74.2845 88.7804 -19 160.8 123 240M145.285 96.2804C87.7845 49.2804 -19 160.8 123 240M145.285 96.2804C125.785 39.7804 -19 160.8 123 240M145.285 96.2804C160.784 45.3222 -19 160.8 123 240" stroke="#FFA6C6"/>
<circle cx="125" cy="82" r="39" fill="#FFD7B1" fill-opacity="0.67"/>
<path d="M148.909 93.5C148.591 92.3939 148.144 91.4167 147.568 90.5682C146.992 89.7045 146.288 88.9773 145.455 88.3864C144.636 87.7803 143.697 87.3182 142.636 87C141.591 86.6818 140.432 86.5227 139.159 86.5227C136.78 86.5227 134.689 87.1136 132.886 88.2955C131.098 89.4773 129.705 91.197 128.705 93.4545C127.705 95.697 127.205 98.4394 127.205 101.682C127.205 104.924 127.697 107.682 128.682 109.955C129.667 112.227 131.061 113.962 132.864 115.159C134.667 116.341 136.795 116.932 139.25 116.932C141.477 116.932 143.379 116.538 144.955 115.75C146.545 114.947 147.758 113.818 148.591 112.364C149.439 110.909 149.864 109.189 149.864 107.205L151.864 107.5H139.864V100.091H159.341V105.955C159.341 110.045 158.477 113.561 156.75 116.5C155.023 119.424 152.644 121.682 149.614 123.273C146.583 124.848 143.114 125.636 139.205 125.636C134.841 125.636 131.008 124.674 127.705 122.75C124.402 120.811 121.826 118.061 119.977 114.5C118.144 110.924 117.227 106.682 117.227 101.773C117.227 98 117.773 94.6364 118.864 91.6818C119.97 88.7121 121.515 86.197 123.5 84.1364C125.485 82.0758 127.795 80.5076 130.432 79.4318C133.068 78.3561 135.924 77.8182 139 77.8182C141.636 77.8182 144.091 78.2045 146.364 78.9773C148.636 79.7348 150.652 80.8106 152.409 82.2045C154.182 83.5985 155.629 85.2576 156.75 87.1818C157.871 89.0909 158.591 91.197 158.909 93.5H148.909ZM176.574 78.4545V125H166.733V78.4545H176.574ZM182.898 86.5682V78.4545H221.125V86.5682H206.875V125H197.148V86.5682H182.898ZM227.42 125V78.4545H237.261V97.6591H257.239V78.4545H267.057V125H257.239V105.773H237.261V125H227.42ZM303.92 78.4545H313.761V108.682C313.761 112.076 312.951 115.045 311.33 117.591C309.723 120.136 307.473 122.121 304.58 123.545C301.686 124.955 298.314 125.659 294.466 125.659C290.602 125.659 287.223 124.955 284.33 123.545C281.436 122.121 279.186 120.136 277.58 117.591C275.973 115.045 275.17 112.076 275.17 108.682V78.4545H285.011V107.841C285.011 109.614 285.398 111.189 286.17 112.568C286.958 113.947 288.064 115.03 289.489 115.818C290.913 116.606 292.572 117 294.466 117C296.375 117 298.034 116.606 299.443 115.818C300.867 115.03 301.966 113.947 302.739 112.568C303.527 111.189 303.92 109.614 303.92 107.841V78.4545ZM321.858 125V78.4545H340.494C343.919 78.4545 346.775 78.9621 349.062 79.9773C351.35 80.9924 353.07 82.4015 354.222 84.2045C355.373 85.9924 355.949 88.053 355.949 90.3864C355.949 92.2045 355.585 93.803 354.858 95.1818C354.131 96.5455 353.131 97.6667 351.858 98.5455C350.6 99.4091 349.161 100.023 347.54 100.386V100.841C349.313 100.917 350.972 101.417 352.517 102.341C354.078 103.265 355.343 104.561 356.312 106.227C357.282 107.879 357.767 109.848 357.767 112.136C357.767 114.606 357.153 116.811 355.926 118.75C354.714 120.674 352.919 122.197 350.54 123.318C348.161 124.439 345.229 125 341.744 125H321.858ZM331.699 116.955H339.722C342.464 116.955 344.464 116.432 345.722 115.386C346.979 114.326 347.608 112.917 347.608 111.159C347.608 109.871 347.297 108.735 346.676 107.75C346.055 106.765 345.169 105.992 344.017 105.432C342.881 104.871 341.525 104.591 339.949 104.591H331.699V116.955ZM331.699 97.9318H338.994C340.343 97.9318 341.54 97.697 342.585 97.2273C343.646 96.7424 344.479 96.0606 345.085 95.1818C345.706 94.303 346.017 93.25 346.017 92.0227C346.017 90.3409 345.419 88.9848 344.222 87.9545C343.04 86.9242 341.358 86.4091 339.176 86.4091H331.699V97.9318Z" fill="black"/>
</svg>
