<svg width="772" height="218" viewBox="0 0 772 218" fill="none" xmlns="http://www.w3.org/2000/svg">
<path d="M298.135 166.975C343.657 100.352 222.848 42.6773 174.732 46.1897C179.644 45.8311 184.979 46.252 190.586 47.3537M304.924 121.219C309.887 135.346 308.621 150.718 297.751 166.651C300.95 153.859 298.384 140.132 292.017 126.713C285.18 112.303 273.943 98.2079 260.658 85.9203C247.371 73.6312 232.018 63.1334 216.929 55.9282C210.257 52.7425 203.628 50.1963 197.246 48.4249C204.764 49.8394 212.87 52.024 221.16 54.894C238.722 60.9746 257.06 70.1158 272.314 81.4677C287.574 92.8247 299.705 106.362 304.924 121.219ZM221.487 53.9491C213.931 51.333 206.512 49.2784 199.534 47.8547C207.761 48.9148 216.809 50.5896 226.144 52.8653C246.458 57.8177 268.085 65.6042 285.525 76.0502C302.982 86.5057 316.152 99.5698 319.725 115.04C323.064 129.496 318.057 146.219 299.964 165.103C309.72 149.668 310.721 134.702 305.868 120.888C300.556 105.767 288.252 92.0826 272.911 80.6655C257.562 69.2433 239.13 60.0577 221.487 53.9491ZM213.168 57.703C207.572 54.1732 201.937 51.2858 196.348 49.2158C202.85 50.9722 209.64 53.5561 216.498 56.8306C231.491 63.9897 246.761 74.4291 259.979 86.6544C273.198 98.8813 284.346 112.877 291.114 127.141C297.589 140.789 300.04 154.645 296.511 167.432C290.967 146.685 273.025 115.984 250.527 90.613C238.949 77.5564 226.143 65.888 213.168 57.703Z" fill="white" stroke="#52783B"/>
<path d="M295.5 163.606C270.916 60.3869 53.8157 118.667 0 165.765C4.67311 161.675 10.4103 157.816 17.0217 154.218M247.879 114.772C271.573 123.152 288.954 138.573 294.968 163.531C283.448 148.473 263.29 138.098 238.689 131.66C213.027 124.945 182.45 122.494 151.59 123.524C120.729 124.554 89.5619 129.067 62.7134 136.292C48.7078 140.061 35.8624 144.571 24.8431 149.719C36.6409 143.277 50.7172 136.989 66.1772 131.296C94.7087 120.79 127.906 112.327 160.093 108.66C192.29 104.991 223.432 106.126 247.879 114.772ZM65.8317 130.357C51.1222 135.774 37.6376 141.737 26.157 147.873C38.5076 140.352 53.3586 132.465 69.6674 124.959C100.125 110.94 135.624 98.2679 169.342 91.7951C203.077 85.3189 234.945 85.0649 258.198 95.788C269.813 101.144 279.278 109.237 285.768 120.673C291.764 131.238 295.235 144.683 295.485 161.507C288.987 137.201 271.582 122.094 248.213 113.829C223.562 105.111 192.248 103.99 159.98 107.666C127.704 111.344 94.4293 119.827 65.8317 130.357ZM60.299 141.315C47.3596 143.562 35.4442 146.655 25.0621 150.721C36.0505 145.569 48.9077 141.042 62.9732 137.257C89.7413 130.054 120.831 125.552 151.624 124.524C182.418 123.496 212.893 125.944 238.436 132.628C263.18 139.102 283.223 149.533 294.489 164.555C262.923 150.801 203.504 139.318 145.071 136.945C115.314 135.736 85.7869 136.889 60.299 141.315Z" fill="white" stroke="#52783B"/>
<path d="M295.458 166.357C260.54 68.5301 123.48 151.419 94.9975 204.19C97.6246 199.323 101.108 194.57 105.301 189.997M254.878 124.536C272.191 129.956 286.564 142.925 294.988 166.527C284.573 153.439 269.292 145.752 251.722 142.337C233.063 138.709 211.794 139.891 190.939 144.551C170.081 149.211 149.614 157.357 132.552 167.681C124.077 172.809 116.433 178.481 109.997 184.538C116.786 177.036 125.031 169.444 134.252 162.247C151.859 148.504 172.984 136.237 194.235 128.828C215.493 121.416 236.824 118.884 254.878 124.536ZM133.636 161.459C125.078 168.139 117.34 175.171 110.814 182.17C117.755 173.614 126.172 164.491 135.558 155.554C153.881 138.106 175.856 121.405 197.668 111.045C219.496 100.677 241.056 96.705 258.63 104.533C275.235 111.929 288.448 129.939 294.932 163.515C286.3 141.338 272.156 128.897 255.177 123.582C236.837 117.84 215.269 120.435 193.906 127.884C172.535 135.335 151.314 147.661 133.636 161.459ZM131.795 172.92C123.688 176.527 116.356 180.798 110.13 185.789C116.613 179.598 124.391 173.788 133.069 168.537C150.034 158.272 170.399 150.165 191.157 145.527C211.916 140.888 233.042 139.723 251.532 143.318C269.384 146.789 284.751 154.69 294.988 168.155C271.031 158.363 228.816 154.076 188.826 158.59C168.347 160.902 148.418 165.526 131.795 172.92Z" fill="white" stroke="#52783B"/>
<path d="M297.674 166.258C341.792 55.9311 486.553 156.37 514.398 217.749C511.961 212.378 508.675 207.092 504.672 201.957M344.72 120.051C325.385 125.498 308.807 139.744 298.127 166.47C323.199 136.492 369.577 133.677 413.298 145.748C435.789 151.958 457.637 162.119 475.628 174.612C485.034 181.145 493.397 188.322 500.246 195.914C493.124 186.674 484.24 177.223 474.161 168.222C455.782 151.808 433.468 136.921 410.714 127.563C387.952 118.202 364.803 114.393 344.72 120.051ZM474.828 167.476C484.253 175.895 492.654 184.718 499.559 193.413C492.326 182.947 483.329 171.652 473.155 160.547C454.226 139.881 431.259 119.909 408.075 107.164C384.876 94.4112 361.563 88.9502 341.864 97.1101C323.155 104.86 307.527 124.974 298.363 163.289C309.164 138.121 325.461 124.438 344.449 119.088C364.831 113.346 388.224 117.232 411.094 126.638C433.971 136.047 456.38 151.001 474.828 167.476ZM476.13 180.613C485.238 185.317 493.352 190.825 500.05 197.194C493.166 189.449 484.673 182.111 475.057 175.434C457.164 163.008 435.42 152.893 413.032 146.712C368.888 134.524 322.473 137.675 298.01 168.192C324.755 158.027 371.237 154.943 414.732 161.829C436.958 165.348 458.437 171.475 476.13 180.613Z" fill="white" stroke="#52783B"/>
<path d="M296.351 164.812C301.275 47.1873 439.345 101.052 477.209 151.623C473.729 146.975 469.554 142.689 464.824 138.793M320.267 107.505C306.942 118.268 298.005 136.567 296.844 164.98C308.346 129.408 343.176 113.334 379.959 112.147C408.517 111.226 438.389 119.268 459.657 134.234C451.839 127.673 442.702 121.419 432.811 115.901C414.246 105.544 393.067 97.8021 373.04 95.4789C353.009 93.1551 334.191 96.257 320.267 107.505ZM433.298 115.028C442.375 120.091 450.833 125.779 458.234 131.765C450.041 124.115 440.402 116.232 429.967 108.837C409.831 94.5658 386.779 82.1432 365.51 76.7045C344.23 71.2631 324.867 72.8389 311.917 86.3542C299.719 99.0858 293.074 122.546 296.047 161.184C297.824 134.697 306.628 117.236 319.639 106.727C333.848 95.2492 352.973 92.1442 373.155 94.4855C393.342 96.8273 414.647 104.622 433.298 115.028ZM385.358 127.135C412.414 122.475 439.83 123.887 460.01 135.714C438.912 120.482 408.822 112.217 379.991 113.147C342.804 114.346 307.948 130.825 297.235 167.1C315.21 149.623 350.1 133.207 385.358 127.135Z" fill="white" stroke="#52783B"/>
<path d="M297.005 166.081C310.18 77.024 177.54 87.301 135.713 116.942C139.871 113.995 144.698 111.542 150.029 109.572M284.067 118.22C294.403 129.139 299.672 144.681 296.506 166.037C291.415 136.896 262.439 117.328 229.537 108.445C212.462 103.835 194.272 102.083 177.69 103.365C170.079 103.954 162.798 105.183 156.114 107.072C163.682 104.196 172.18 101.77 181.163 99.9485C199.492 96.2324 219.789 95.0467 238.228 97.6753C256.674 100.305 273.203 106.743 284.067 118.22ZM180.964 98.9685C172.789 100.626 164.998 102.785 157.929 105.334C165.983 101.731 175.122 98.2733 184.806 95.2701C205.147 88.9626 227.842 84.6752 247.872 85.2375C267.919 85.8002 285.178 91.2146 294.815 104.177C303.824 116.296 306.283 135.163 297.884 163.235C300.197 143.126 294.888 128.197 284.793 117.533C273.713 105.828 256.933 99.3317 238.369 96.6853C219.798 94.0378 199.384 95.234 180.964 98.9685ZM175.052 107.13C168.248 106.761 161.698 107.095 155.575 108.268C162.399 106.268 169.894 104.971 177.767 104.362C194.23 103.089 212.306 104.829 229.276 109.41C262.587 118.404 291.423 138.271 295.739 167.565C282.119 150.562 253.192 130.715 222.38 118.505C206.526 112.222 190.141 107.948 175.052 107.13Z" fill="white" stroke="#52783B"/>
<path d="M376.591 108.682C376.227 105.015 374.667 102.167 371.909 100.136C369.152 98.1061 365.409 97.0909 360.682 97.0909C357.47 97.0909 354.758 97.5455 352.545 98.4545C350.333 99.3333 348.636 100.561 347.455 102.136C346.303 103.712 345.727 105.5 345.727 107.5C345.667 109.167 346.015 110.621 346.773 111.864C347.561 113.106 348.636 114.182 350 115.091C351.364 115.97 352.939 116.742 354.727 117.409C356.515 118.045 358.424 118.591 360.455 119.045L368.818 121.045C372.879 121.955 376.606 123.167 380 124.682C383.394 126.197 386.333 128.061 388.818 130.273C391.303 132.485 393.227 135.091 394.591 138.091C395.985 141.091 396.697 144.53 396.727 148.409C396.697 154.106 395.242 159.045 392.364 163.227C389.515 167.379 385.394 170.606 380 172.909C374.636 175.182 368.167 176.318 360.591 176.318C353.076 176.318 346.53 175.167 340.955 172.864C335.409 170.561 331.076 167.152 327.955 162.636C324.864 158.091 323.242 152.47 323.091 145.773H342.136C342.348 148.894 343.242 151.5 344.818 153.591C346.424 155.652 348.561 157.212 351.227 158.273C353.924 159.303 356.97 159.818 360.364 159.818C363.697 159.818 366.591 159.333 369.045 158.364C371.53 157.394 373.455 156.045 374.818 154.318C376.182 152.591 376.864 150.606 376.864 148.364C376.864 146.273 376.242 144.515 375 143.091C373.788 141.667 372 140.455 369.636 139.455C367.303 138.455 364.439 137.545 361.045 136.727L350.909 134.182C343.061 132.273 336.864 129.288 332.318 125.227C327.773 121.167 325.515 115.697 325.545 108.818C325.515 103.182 327.015 98.2576 330.045 94.0455C333.106 89.8333 337.303 86.5455 342.636 84.1818C347.97 81.8182 354.03 80.6364 360.818 80.6364C367.727 80.6364 373.758 81.8182 378.909 84.1818C384.091 86.5455 388.121 89.8333 391 94.0455C393.879 98.2576 395.364 103.136 395.455 108.682H376.591ZM423.886 175H402.795L434.932 81.9091H460.295L492.386 175H471.295L447.977 103.182H447.25L423.886 175ZM422.568 138.409H472.386V153.773H422.568V138.409ZM503.591 175V81.9091H523.273V120.318H563.227V81.9091H582.864V175H563.227V136.545H523.273V175H503.591ZM618.773 81.9091V175H599.091V81.9091H618.773ZM634.966 175V81.9091H654.648V158.773H694.557V175H634.966Z" fill="black"/>
<path d="M295.295 165.939C252.802 93.5095 383.254 41.3322 433.146 48.1562C428.153 47.4733 422.678 47.5444 416.878 48.2821M291.668 117.725C285.388 132.149 285.535 148.285 295.698 165.638C293.305 152.071 297.037 137.901 304.732 124.304C312.967 109.753 325.763 95.8164 340.553 83.896C355.345 71.9742 372.152 62.0532 388.429 55.5432C395.8 52.5952 403.071 50.3429 410.005 48.9231C401.925 49.8901 393.137 51.6535 384.095 54.1477C365.324 59.3257 345.506 67.6404 328.731 78.4608C311.95 89.2858 298.258 102.589 291.668 117.725ZM383.829 53.1837C392.117 50.8975 400.209 49.2178 407.756 48.2012C398.949 48.7502 389.186 49.9114 379.061 51.707C357.509 55.529 334.369 62.2163 315.386 71.9494C296.386 81.691 281.644 94.4344 276.722 110.32C272.109 125.209 276.076 143.02 293.604 163.957C284.514 147.164 284.604 131.445 290.751 117.326C297.452 101.937 311.324 88.4993 328.189 77.6205C345.062 66.737 364.975 58.3844 383.829 53.1837ZM392.213 57.6371C398.465 54.2486 404.708 51.5654 410.831 49.7767C403.787 51.1718 396.358 53.449 388.8 56.4717C372.622 62.9424 355.9 72.811 341.181 84.6746C326.459 96.5396 313.759 110.384 305.602 124.797C297.783 138.613 294.159 152.913 296.876 166.488C304.229 145.251 325.315 114.417 350.749 89.4465C363.821 76.6128 378.064 65.3059 392.213 57.6371Z" fill="white" stroke="#52783B"/>
</svg>
