<svg width="335" height="180" viewBox="0 0 335 180" fill="none" xmlns="http://www.w3.org/2000/svg">
<path d="M83.2013 82.1892C80.1582 79.2269 159.014 19.8678 34.6208 1.00001M83.2013 82.1892C80.1582 79.2269 136.463 32.8435 34.6208 1.00001M83.2013 82.1892C80.1582 79.2269 70.1847 45.4347 34.6208 1.00001M83.2013 82.1892C80.1582 79.2269 123.752 39.3008 34.6208 1.00001M83.2013 82.1892C80.1582 79.2269 90.0653 47.5795 34.6208 1.00001M83.2013 82.1892C80.1582 79.2269 147.577 23.383 34.6208 1.00001" stroke="#EABFF4"/>
<path d="M83.2013 82.1892C80.1582 79.2269 159.014 19.8678 34.6208 1M83.2013 82.1892C80.1582 79.2269 136.463 32.8435 34.6208 1M83.2013 82.1892C80.1582 79.2269 70.1847 45.4347 34.6208 1M83.2013 82.1892C80.1582 79.2269 123.752 39.3008 34.6208 1M83.2013 82.1892C80.1582 79.2269 90.0653 47.5795 34.6208 1M83.2013 82.1892C80.1582 79.2269 147.577 23.383 34.6208 1" stroke="#EABFF4"/>
<path d="M83.2013 82.1892C80.1582 79.2269 159.014 19.8678 34.6208 1.00001M83.2013 82.1892C80.1582 79.2269 136.463 32.8435 34.6208 1.00001M83.2013 82.1892C80.1582 79.2269 70.1847 45.4347 34.6208 1.00001M83.2013 82.1892C80.1582 79.2269 123.752 39.3008 34.6208 1.00001M83.2013 82.1892C80.1582 79.2269 90.0653 47.5795 34.6208 1.00001M83.2013 82.1892C80.1582 79.2269 147.577 23.383 34.6208 1.00001" stroke="#EABFF4"/>
<path d="M83.2013 82.1892C80.1582 79.2269 159.014 19.8678 34.6208 1.00001M83.2013 82.1892C80.1582 79.2269 136.463 32.8435 34.6208 1.00001M83.2013 82.1892C80.1582 79.2269 70.1847 45.4347 34.6208 1.00001M83.2013 82.1892C80.1582 79.2269 123.752 39.3008 34.6208 1.00001M83.2013 82.1892C80.1582 79.2269 90.0653 47.5795 34.6208 1.00001M83.2013 82.1892C80.1582 79.2269 147.577 23.383 34.6208 1.00001" stroke="#EABFF4"/>
<path d="M83.2013 82.1892C80.1582 79.2269 159.014 19.8678 34.6208 1M83.2013 82.1892C80.1582 79.2269 136.463 32.8435 34.6208 1M83.2013 82.1892C80.1582 79.2269 70.1847 45.4347 34.6208 1M83.2013 82.1892C80.1582 79.2269 123.752 39.3008 34.6208 1M83.2013 82.1892C80.1582 79.2269 90.0653 47.5795 34.6208 1M83.2013 82.1892C80.1582 79.2269 147.577 23.383 34.6208 1" stroke="#EABFF4"/>
<path d="M83.2013 82.1892C80.1582 79.2269 159.014 19.8678 34.6208 1.00001M83.2013 82.1892C80.1582 79.2269 136.463 32.8435 34.6208 1.00001M83.2013 82.1892C80.1582 79.2269 70.1847 45.4347 34.6208 1.00001M83.2013 82.1892C80.1582 79.2269 123.752 39.3008 34.6208 1.00001M83.2013 82.1892C80.1582 79.2269 90.0653 47.5795 34.6208 1.00001M83.2013 82.1892C80.1582 79.2269 147.577 23.383 34.6208 1.00001" stroke="#EABFF4"/>
<path d="M83.6317 82.22C80.5952 79.2817 139.661 33.5088 15.617 14.7511M83.6317 82.22C80.5952 79.2817 117.187 46.3652 15.617 14.7511M83.6317 82.22C80.5952 79.2817 51.112 58.8228 15.617 14.7511M83.6317 82.22C80.5952 79.2817 104.519 52.7626 15.617 14.7511M83.6317 82.22C80.5952 79.2817 70.9363 60.9574 15.617 14.7511M83.6317 82.22C80.5952 79.2817 128.261 36.9894 15.617 14.7511M83.6317 82.22C80.5952 79.2817 84.3173 53.158 15.617 14.7511" stroke="#EABFF4"/>
<path d="M85.0056 77.009C87.2403 80.8653 46.2379 102.099 145.28 122.609C128.886 84.9919 109.453 78.5552 97.1463 77.6729C91.4229 76.4388 87.8724 77.7295 86.1061 77.5924C85.5576 77.4957 85.1843 77.3174 85.0056 77.009Z" fill="white"/>
<path d="M85.0056 77.009C87.2403 80.8653 46.2379 102.099 145.28 122.609M85.0056 77.009C87.2403 80.8653 65.4263 83.823 145.28 122.609M85.0056 77.009C87.2403 80.8653 119.902 64.3756 145.28 122.609M85.0056 77.009C87.2403 80.8653 76.1779 74.6706 145.28 122.609M85.0056 77.009C87.2403 80.8653 104.007 62.2656 145.28 122.609M85.0056 77.009C87.2403 80.8653 55.7386 96.9425 145.28 122.609M85.0056 77.009C87.2403 80.8653 92.5714 73.3429 145.28 122.609" stroke="#EABFF4"/>
<path d="M82.9711 82.1728C86.7727 79.7003 25.8835 10.3418 153.031 9.47297M82.9711 82.1728C86.7727 79.7003 44.4012 26.2561 153.031 9.47297M82.9711 82.1728C86.7727 79.7003 105.889 47.9896 153.031 9.47297M82.9711 82.1728C86.7727 79.7003 55.076 34.3868 153.031 9.47297M82.9711 82.1728C86.7727 79.7003 85.8087 47.275 153.031 9.47297M82.9711 82.1728C86.7727 79.7003 36.122 15.4079 153.031 9.47297" stroke="#EABFF4"/>
<path d="M82.9711 82.1728C86.7727 79.7003 25.8835 10.3418 153.031 9.47296M82.9711 82.1728C86.7727 79.7003 44.4012 26.2561 153.031 9.47296M82.9711 82.1728C86.7727 79.7003 105.889 47.9896 153.031 9.47296M82.9711 82.1728C86.7727 79.7003 55.076 34.3868 153.031 9.47296M82.9711 82.1728C86.7727 79.7003 85.8087 47.275 153.031 9.47296M82.9711 82.1728C86.7727 79.7003 36.122 15.4079 153.031 9.47296" stroke="#EABFF4"/>
<path d="M82.9711 82.1728C86.7727 79.7003 25.8835 10.3418 153.031 9.47297M82.9711 82.1728C86.7727 79.7003 44.4012 26.2561 153.031 9.47297M82.9711 82.1728C86.7727 79.7003 105.889 47.9896 153.031 9.47297M82.9711 82.1728C86.7727 79.7003 55.076 34.3868 153.031 9.47297M82.9711 82.1728C86.7727 79.7003 85.8087 47.275 153.031 9.47297M82.9711 82.1728C86.7727 79.7003 36.122 15.4079 153.031 9.47297" stroke="#EABFF4"/>
<path d="M82.9711 82.1728C86.7727 79.7003 25.8835 10.3418 153.031 9.47297M82.9711 82.1728C86.7727 79.7003 44.4012 26.2561 153.031 9.47297M82.9711 82.1728C86.7727 79.7003 105.889 47.9896 153.031 9.47297M82.9711 82.1728C86.7727 79.7003 55.076 34.3868 153.031 9.47297M82.9711 82.1728C86.7727 79.7003 85.8087 47.275 153.031 9.47297M82.9711 82.1728C86.7727 79.7003 36.122 15.4079 153.031 9.47297" stroke="#EABFF4"/>
<path d="M82.9711 82.1728C86.7727 79.7003 25.8835 10.3418 153.031 9.47296M82.9711 82.1728C86.7727 79.7003 44.4012 26.2561 153.031 9.47296M82.9711 82.1728C86.7727 79.7003 105.889 47.9896 153.031 9.47296M82.9711 82.1728C86.7727 79.7003 55.076 34.3868 153.031 9.47296M82.9711 82.1728C86.7727 79.7003 85.8087 47.275 153.031 9.47296M82.9711 82.1728C86.7727 79.7003 36.122 15.4079 153.031 9.47296" stroke="#EABFF4"/>
<path d="M82.9711 82.1728C86.7727 79.7003 25.8835 10.3418 153.031 9.47297M82.9711 82.1728C86.7727 79.7003 44.4012 26.2561 153.031 9.47297M82.9711 82.1728C86.7727 79.7003 105.889 47.9896 153.031 9.47297M82.9711 82.1728C86.7727 79.7003 55.076 34.3868 153.031 9.47297M82.9711 82.1728C86.7727 79.7003 85.8087 47.275 153.031 9.47297M82.9711 82.1728C86.7727 79.7003 36.122 15.4079 153.031 9.47297" stroke="#EABFF4"/>
<path d="M82.5409 82.142C86.3295 79.6921 41.0828 26.4551 167.859 25.6448M82.5409 82.142C86.3295 79.6921 59.5589 42.2417 167.859 25.6448M82.5409 82.142C86.3295 79.6921 120.884 63.8154 167.859 25.6448M82.5409 82.142C86.3295 79.6921 70.209 50.3076 167.859 25.6448M82.5409 82.142C86.3295 79.6921 100.862 63.0988 167.859 25.6448M82.5409 82.142C86.3295 79.6921 51.2953 31.4822 167.859 25.6448M82.5409 82.142C86.3295 79.6921 89.9015 53.5576 167.859 25.6448" stroke="#EABFF4"/>
<path d="M82.9711 82.1728C86.7727 79.7003 25.8835 10.3418 153.031 9.47297C105.889 47.9896 86.7727 79.7003 82.9711 82.1728Z" fill="white"/>
<path d="M82.9711 82.1728C86.7727 79.7003 25.8835 10.3418 153.031 9.47296M82.9711 82.1728C86.7727 79.7003 44.4012 26.2561 153.031 9.47296M82.9711 82.1728C86.7727 79.7003 105.889 47.9896 153.031 9.47296M82.9711 82.1728C86.7727 79.7003 55.076 34.3868 153.031 9.47296M82.9711 82.1728C86.7727 79.7003 85.8087 47.275 153.031 9.47296M82.9711 82.1728C86.7727 79.7003 36.122 15.4079 153.031 9.47296M82.9711 82.1728C86.7727 79.7003 74.8235 37.6566 153.031 9.47296" stroke="#EABFF4"/>
<path d="M83.2344 76.435C79.9818 79.8617 124.086 169.686 21.3025 175.621M83.2344 76.435C79.9818 79.8617 110.293 149.247 21.3025 175.621M83.2344 76.435C79.9818 79.8617 62.2125 122.695 21.3025 175.621M83.2344 76.435C79.9818 79.8617 98.7114 134.964 21.3025 175.621M83.2344 76.435C79.9818 79.8617 78.3825 122.889 21.3025 175.621M83.2344 76.435C79.9818 79.8617 116.186 163.343 21.3025 175.621" stroke="#EABFF4"/>
<path d="M84.1806 77.9419C85.9715 81.7294 53.5667 140.175 136.129 159.372M84.1806 77.9419C85.9715 81.7294 70.0343 121.901 136.129 159.372M84.1806 77.9419C85.9715 81.7294 116.097 102.085 136.129 159.372M84.1806 77.9419C85.9715 81.7294 83.893 114.979 136.129 159.372M84.1806 77.9419C85.9715 81.7294 102.822 100.173 136.129 159.372M84.1806 77.9419C85.9715 81.7294 61.6376 134.975 136.129 159.372" stroke="#EABFF4"/>
<path d="M83.2345 76.4351C79.9819 79.8617 122.093 133.565 19.3093 139.5C60.2193 86.5741 79.9819 79.8617 83.2345 76.4351Z" fill="white"/>
<path d="M83.2345 76.4351C79.9819 79.8617 122.093 133.565 19.3093 139.5M83.2345 76.4351C79.9819 79.8617 108.3 113.126 19.3093 139.5M83.2345 76.4351C79.9819 79.8617 60.2193 86.5741 19.3093 139.5M83.2345 76.4351C79.9819 79.8617 100.272 102.729 19.3093 139.5M83.2345 76.4351C79.9819 79.8617 76.3893 86.7682 19.3093 139.5M83.2345 76.4351C79.9819 79.8617 114.193 127.222 19.3093 139.5M83.2345 76.4351C79.9819 79.8617 84.5586 99.1292 19.3093 139.5" stroke="#EABFF4"/>
<path d="M82.6344 76.8394C79.3781 80.3027 113.701 106.926 10.9488 112.997M82.6344 76.8394C79.3781 80.3027 99.9432 86.2929 10.9488 112.997M82.6344 76.8394C79.3781 80.3027 51.9203 59.5112 10.9488 112.997M82.6344 76.8394C79.3781 80.3027 91.9339 75.798 10.9488 112.997M82.6344 76.8394C79.3781 80.3027 68.0836 59.6951 10.9488 112.997M82.6344 76.8394C79.3781 80.3027 105.813 100.526 10.9488 112.997M82.6344 76.8394C79.3781 80.3027 76.2316 72.1737 10.9488 112.997" stroke="#EABFF4"/>
<path d="M83.6791 81.915C80.5511 79.142 130.596 66.0556 3.97773 47.7378C27.669 74.5672 52.7052 79.8388 68.3059 80.9563C75.6267 82.0488 80.0039 81.2967 82.2438 81.4643C82.9437 81.554 83.4289 81.6933 83.6791 81.915Z" fill="white"/>
<path d="M83.6791 81.915C80.5511 79.142 130.596 66.0556 3.97773 47.7378M83.6791 81.915C80.5511 79.142 107.842 77.9785 3.97773 47.7378M83.6791 81.915C80.5511 79.142 40.653 89.271 3.97773 47.7378M83.6791 81.915C80.5511 79.142 95.0054 83.9026 3.97773 47.7378M83.6791 81.915C80.5511 79.142 60.8787 91.3891 3.97773 47.7378M83.6791 81.915C80.5511 79.142 119.019 69.2523 3.97773 47.7378M83.6791 81.915C80.5511 79.142 74.4247 84.1546 3.97773 47.7378" stroke="#EABFF4"/>
<path d="M42.0455 103V56.4545H51.8864V94.8864H71.8409V103H42.0455ZM88.1989 56.4545V103H78.358V56.4545H88.1989ZM135.227 56.4545V103H126.727L106.477 73.7045H106.136V103H96.2955V56.4545H104.932L125.023 85.7273H125.432V56.4545H135.227ZM143.358 103V56.4545H153.199V76.9773H153.812L170.562 56.4545H182.358L165.085 77.2955L182.562 103H170.79L158.04 83.8636L153.199 89.7727V103H143.358ZM187.483 103V56.4545H218.847V64.5682H197.324V75.6591H217.233V83.7727H197.324V94.8864H218.938V103H187.483ZM243.17 103H226.67V56.4545H243.307C247.989 56.4545 252.019 57.3864 255.398 59.25C258.777 61.0985 261.375 63.7576 263.193 67.2273C265.027 70.697 265.943 74.8485 265.943 79.6818C265.943 84.5303 265.027 88.697 263.193 92.1818C261.375 95.6667 258.761 98.3409 255.352 100.205C251.958 102.068 247.898 103 243.17 103ZM236.511 94.5682H242.761C245.67 94.5682 248.117 94.053 250.102 93.0227C252.102 91.9773 253.602 90.3636 254.602 88.1818C255.617 85.9848 256.125 83.1515 256.125 79.6818C256.125 76.2424 255.617 73.4318 254.602 71.25C253.602 69.0682 252.11 67.4621 250.125 66.4318C248.14 65.4015 245.693 64.8864 242.784 64.8864H236.511V94.5682ZM283.074 56.4545V103H273.233V56.4545H283.074ZM330.102 56.4545V103H321.602L301.352 73.7045H301.011V103H291.17V56.4545H299.807L319.898 85.7273H320.307V56.4545H330.102Z" fill="black"/>
</svg>
