<svg width="704" height="218" viewBox="0 0 704 218" fill="none" xmlns="http://www.w3.org/2000/svg">
<rect width="704" height="218" fill="#1E1E1E"/>
<rect width="1440" height="1024" transform="translate(-296 -57)" fill="white"/>
<mask id="path-1-inside-1_0_1" fill="white">
<path d="M174.732 46.1897C223.41 42.6363 381.608 87.1864 296.472 169.312C286.597 128.049 223.41 42.6363 174.732 46.1897Z"/>
</mask>
<path d="M174.732 46.1897C223.41 42.6363 381.608 87.1864 296.472 169.312C286.597 128.049 223.41 42.6363 174.732 46.1897Z" fill="white"/>
<path d="M296.472 169.312L295.996 169.159L296.874 169.609L296.472 169.312ZM174.768 46.6884C186.843 45.807 203.589 48.8105 221.16 54.8941C238.722 60.9746 257.06 70.1158 272.314 81.4677C287.574 92.8247 299.705 106.362 304.924 121.219C310.132 136.043 308.482 152.239 296.07 169.015L296.874 169.609C309.471 152.583 311.192 136.043 305.868 120.888C300.556 105.767 288.252 92.0826 272.911 80.6655C257.562 69.2433 239.13 60.0577 221.487 53.9491C203.853 47.8436 186.96 44.7957 174.696 45.691L174.768 46.6884ZM174.768 46.6884C186.816 45.8089 201.496 49.6671 216.498 56.8306C231.491 63.9897 246.761 74.4291 259.979 86.6544C273.198 98.8813 284.346 112.877 291.114 127.141C297.882 141.406 300.253 155.898 295.996 169.159L296.948 169.465C301.308 155.885 298.854 141.121 292.017 126.713C285.18 112.303 273.943 98.2079 260.658 85.9203C247.371 73.6312 232.018 63.1334 216.929 55.9282C201.848 48.7273 186.987 44.7938 174.696 45.691L174.768 46.6884ZM296.472 169.312L295.5 169.545L295.907 171.247L297.167 170.032L296.472 169.312ZM174.805 47.187C186.83 46.3093 205.731 48.4036 226.025 53.3511C246.308 58.2958 267.884 66.0666 285.269 76.4791C302.685 86.9107 315.711 99.8817 319.238 115.153C322.747 130.343 316.931 148.187 295.778 168.592L297.167 170.032C318.581 149.374 324.917 130.853 321.187 114.703C317.475 98.6338 303.873 85.2909 286.296 74.7634C268.688 64.2168 246.909 56.3835 226.499 51.408C206.101 46.4353 186.974 44.2934 174.659 45.1923L174.805 47.187ZM174.805 47.187C186.675 46.3205 199.535 50.8766 212.368 58.9716C225.188 67.0589 237.888 78.6209 249.405 91.6082C272.462 117.609 290.615 149.134 295.5 169.545L297.445 169.079C292.454 148.227 274.075 116.414 250.901 90.2812C239.302 77.2016 226.461 65.4977 213.435 57.2801C200.42 49.0701 187.128 44.2822 174.659 45.1923L174.805 47.187Z" fill="#87D856" mask="url(#path-1-inside-1_0_1)"/>
<mask id="path-3-inside-2_0_1" fill="white">
<path d="M0 165.765C54.1869 118.343 298.479 14.625 295.981 165.765C233.954 137.666 54.1869 118.343 0 165.765Z"/>
</mask>
<path d="M0 165.765C54.1869 118.343 298.479 14.625 295.981 165.765C233.954 137.666 54.1869 118.343 0 165.765Z" fill="white"/>
<path d="M295.981 165.765L295.571 166.051L296.471 165.663L295.981 165.765ZM0.329287 166.141C13.808 154.345 37.6342 141.806 66.1772 131.296C94.7087 120.79 127.906 112.327 160.093 108.66C192.29 104.991 223.432 106.126 247.879 114.772C272.304 123.41 290.019 139.53 295.491 165.867L296.471 165.663C290.911 138.908 272.886 122.555 248.213 113.829C223.562 105.111 192.248 103.99 159.98 107.666C127.704 111.344 94.4293 119.827 65.8317 130.357C37.2456 140.884 13.2854 153.473 -0.329287 165.389L0.329287 166.141ZM0.329287 166.141C13.7905 154.36 36.1913 144.464 62.9732 137.257C89.7413 130.054 120.831 125.552 151.624 124.524C182.418 123.496 212.893 125.944 238.436 132.628C263.993 139.315 284.535 150.223 295.571 166.051L296.391 165.479C285.155 149.363 264.337 138.372 238.689 131.66C213.027 124.945 182.45 122.494 151.59 123.524C120.729 124.554 89.5619 129.067 62.7134 136.292C35.8786 143.513 13.3029 153.458 -0.329287 165.389L0.329287 166.141ZM295.981 165.765L295.568 166.676L296.956 167.304L296.981 165.781L295.981 165.765ZM0.658573 166.517C14.1003 154.754 39.4292 139.427 69.8765 125.413C100.308 111.406 135.768 98.7494 169.436 92.2861C203.139 85.816 234.879 85.5854 257.989 96.2421C269.519 101.559 278.9 109.585 285.333 120.92C291.771 132.264 295.291 146.987 294.981 165.748L296.981 165.781C297.295 146.757 293.728 131.66 287.072 119.933C280.412 108.196 270.695 99.8987 258.827 94.4259C235.14 83.5034 202.89 83.8274 169.059 90.322C135.192 96.8234 99.5755 109.542 69.0403 123.596C38.5208 137.643 12.9931 153.065 -0.658573 165.012L0.658573 166.517ZM0.658573 166.517C13.9986 154.843 35.176 147.2 60.5557 142.793C85.9071 138.39 115.321 137.238 145.01 138.444C204.418 140.857 264.721 152.702 295.568 166.676L296.394 164.854C265.214 150.729 204.62 138.863 145.091 136.445C115.311 135.236 85.7468 136.388 60.2135 140.822C34.7084 145.251 13.0948 152.976 -0.658573 165.012L0.658573 166.517Z" fill="#87D856" mask="url(#path-3-inside-2_0_1)"/>
<mask id="path-5-inside-3_0_1" fill="white">
<path d="M94.9974 204.19C123.763 150.895 272.291 19.5156 296.467 169.322C249.436 148.834 123.763 150.895 94.9974 204.19Z"/>
</mask>
<path d="M94.9974 204.19C123.763 150.895 272.291 19.5156 296.467 169.322C249.436 148.834 123.763 150.895 94.9974 204.19Z" fill="white"/>
<path d="M296.467 169.322L296.06 169.612L296.943 169.168L296.467 169.322ZM95.4374 204.428C102.583 191.188 116.638 175.994 134.252 162.247C151.859 148.504 172.984 136.237 194.235 128.828C215.493 121.416 236.824 118.884 254.878 124.536C272.899 130.178 287.735 143.999 295.991 169.476L296.943 169.168C288.6 143.426 273.549 129.333 255.177 123.582C236.837 117.84 215.269 120.435 193.906 127.884C172.534 135.335 151.314 147.661 133.636 161.459C115.965 175.251 101.794 190.545 94.5574 203.953L95.4374 204.428ZM95.4374 204.428C102.571 191.212 116.098 178.806 133.069 168.537C150.033 158.272 170.399 150.165 191.157 145.527C211.916 140.888 233.042 139.723 251.532 143.318C270.018 146.912 285.839 155.257 296.06 169.612L296.874 169.032C286.466 154.412 270.384 145.965 251.722 142.337C233.063 138.709 211.794 139.891 190.939 144.551C170.081 149.211 149.613 157.357 132.552 167.681C115.497 178.001 101.807 190.521 94.5574 203.953L95.4374 204.428ZM296.467 169.322L296.068 170.239L297.746 170.97L297.454 169.163L296.467 169.322ZM95.8774 204.665C103 191.469 117.596 173.347 135.902 155.916C154.201 138.491 176.133 121.827 197.882 111.496C219.663 101.151 241.053 97.251 258.426 104.99C275.753 112.707 289.46 132.178 295.48 169.482L297.454 169.163C291.386 131.563 277.461 111.279 259.24 103.163C241.066 95.0672 218.993 99.2547 197.024 109.69C175.023 120.14 152.919 136.951 134.523 154.468C116.134 171.977 101.377 190.264 94.1174 203.715L95.8774 204.665ZM95.8774 204.665C102.925 191.608 115.956 181.608 132.405 174.291C148.846 166.977 168.615 162.382 188.995 160.081C229.79 155.476 272.771 160.09 296.068 170.239L296.866 168.405C273.131 158.066 229.761 153.466 188.77 158.094C168.257 160.409 148.275 165.042 131.592 172.463C114.918 179.881 101.452 190.126 94.1174 203.715L95.8774 204.665Z" fill="#87D856" mask="url(#path-5-inside-3_0_1)"/>
<mask id="path-7-inside-4_0_1" fill="white">
<path d="M514.398 217.749C486.3 155.811 332.246 -0.233103 296.494 169.323C349.147 148.025 486.3 155.811 514.398 217.749Z"/>
</mask>
<path d="M514.398 217.749C486.3 155.811 332.246 -0.233103 296.494 169.323C349.147 148.025 486.3 155.811 514.398 217.749Z" fill="white"/>
<path d="M296.494 169.323L296.892 169.625L296.025 169.15L296.494 169.323ZM513.943 217.956C506.957 202.558 492.546 184.642 474.161 168.222C455.782 151.808 433.468 136.921 410.713 127.563C387.952 118.202 364.803 114.393 344.72 120.051C324.667 125.7 307.581 140.813 296.963 169.497L296.025 169.15C306.733 140.221 324.036 124.839 344.448 119.088C364.831 113.346 388.223 117.232 411.094 126.638C433.971 136.047 456.38 151.001 474.827 167.476C493.27 183.947 507.789 201.972 514.853 217.543L513.943 217.956ZM513.943 217.956C506.968 202.583 492.957 187.864 475.057 175.434C457.163 163.008 435.419 152.893 413.032 146.712C368.206 134.336 321.039 137.776 296.892 169.625L296.095 169.021C320.631 136.659 368.367 133.343 413.298 145.748C435.789 151.958 457.637 162.119 475.628 174.612C493.612 187.102 507.778 201.947 514.853 217.543L513.943 217.956ZM296.494 169.323L296.869 170.25L295.128 170.954L295.515 169.117L296.494 169.323ZM513.487 218.163C506.522 202.809 491.699 181.531 472.787 160.884C453.879 140.244 430.955 120.312 407.834 107.602C384.684 94.876 361.545 89.4992 342.056 97.572C322.596 105.633 306.383 127.272 297.472 169.529L295.515 169.117C304.481 126.596 320.932 104.157 341.29 95.7243C361.62 87.3033 385.454 93.017 408.798 105.85C432.172 118.699 455.264 138.794 474.261 159.533C493.254 180.267 508.225 201.721 515.309 217.336L513.487 218.163ZM513.487 218.163C506.588 202.954 492.957 190.993 475.442 181.946C457.932 172.902 436.619 166.813 414.498 163.311C370.219 156.3 322.968 159.693 296.869 170.25L296.119 168.396C322.673 157.655 370.325 154.292 414.81 161.335C437.071 164.859 458.605 170.999 476.36 180.169C494.109 189.337 508.159 201.576 515.309 217.336L513.487 218.163Z" fill="#87D856" mask="url(#path-7-inside-4_0_1)"/>
<mask id="path-9-inside-5_0_1" fill="white">
<path d="M477.209 151.623C438.924 100.489 278.285 -4.04475 296.236 168.804C331.108 133.042 438.924 100.489 477.209 151.623Z"/>
</mask>
<path d="M477.209 151.623C438.924 100.489 278.285 -4.04475 296.236 168.804C331.108 133.042 438.924 100.489 477.209 151.623Z" fill="white"/>
<path d="M296.236 168.804L296.719 168.934L295.737 168.796L296.236 168.804ZM476.808 151.923C467.292 139.212 451.38 126.26 432.811 115.901C414.246 105.544 393.067 97.8021 373.04 95.4789C353.009 93.1551 334.192 96.257 320.267 107.505C306.353 118.744 297.223 138.201 296.736 168.812L295.737 168.796C296.226 137.999 305.42 118.212 319.639 106.727C333.848 95.2492 352.973 92.1442 373.155 94.4855C393.342 96.8273 414.647 104.622 433.298 115.028C451.947 125.431 467.983 138.467 477.609 151.323L476.808 151.923ZM476.808 151.923C457.796 126.529 417.811 111.927 379.992 113.147C342.183 114.366 306.785 131.38 296.719 168.934L295.753 168.675C305.981 130.518 341.926 113.374 379.959 112.147C417.982 110.921 458.337 125.583 477.609 151.323L476.808 151.923ZM296.236 168.804L296.952 169.502L295.462 171.03L295.242 168.908L296.236 168.804ZM476.408 152.222C466.919 139.548 449.787 123.496 429.678 109.244C409.569 94.9929 386.574 82.6068 365.386 77.1889C344.178 71.7656 325.043 73.3775 312.279 86.7001C299.462 100.077 292.751 125.564 297.231 168.701L295.242 168.908C290.746 125.62 297.384 99.3551 310.834 85.3165C324.337 71.2234 344.389 69.7554 365.882 75.2512C387.395 80.7524 410.617 93.2843 430.834 107.613C451.051 121.941 468.356 138.131 478.009 151.024L476.408 152.222ZM476.408 152.222C457.62 127.129 421.617 122.413 385.612 128.613C349.651 134.806 314.198 151.817 296.952 169.502L295.52 168.106C313.147 150.03 349.038 132.883 385.273 126.642C421.466 120.409 458.512 124.984 478.009 151.024L476.408 152.222Z" fill="#87D856" mask="url(#path-9-inside-5_0_1)"/>
<mask id="path-11-inside-6_0_1" fill="white">
<path d="M135.713 116.942C178.04 86.9468 338.929 43.6008 296.47 169.317C270.422 134.887 178.04 86.9468 135.713 116.942Z"/>
</mask>
<path d="M135.713 116.942C178.04 86.9468 338.929 43.6008 296.47 169.317C270.422 134.887 178.04 86.9468 135.713 116.942Z" fill="white"/>
<path d="M296.47 169.317L295.973 169.372L296.962 169.406L296.47 169.317ZM136.002 117.35C146.506 109.906 162.826 103.666 181.163 99.9485C199.492 96.2324 219.789 95.0467 238.228 97.6753C256.674 100.305 273.203 106.743 284.067 118.22C294.91 129.675 300.178 146.219 295.978 169.227L296.962 169.406C301.208 146.146 295.895 129.26 284.793 117.533C273.713 105.828 256.933 99.3317 238.369 96.6853C219.798 94.0378 199.384 95.234 180.964 98.9685C162.551 102.701 146.083 108.98 135.424 116.534L136.002 117.35ZM136.002 117.35C146.484 109.922 161.297 105.636 177.767 104.362C194.23 103.089 212.306 104.829 229.276 109.41C263.267 118.587 292.599 139.087 295.973 169.372L296.967 169.261C293.522 138.337 263.639 117.652 229.537 108.445C212.462 103.835 194.272 102.083 177.69 103.365C161.116 104.647 146.105 108.965 135.424 116.534L136.002 117.35ZM296.47 169.317L295.672 169.92L296.812 171.427L297.417 169.637L296.47 169.317ZM136.291 117.758C146.755 110.342 164.639 102.048 184.955 95.7477C205.263 89.45 227.901 85.1771 247.858 85.7373C267.849 86.2984 284.913 91.697 294.413 104.475C303.898 117.232 306.095 137.692 295.522 168.997L297.417 169.637C308.074 138.084 306.082 116.818 296.018 103.282C285.971 89.7674 268.129 84.3055 247.914 83.7381C227.665 83.1697 204.798 87.5001 184.362 93.8374C163.934 100.172 145.833 108.544 135.134 116.126L136.291 117.758ZM136.291 117.758C146.626 110.434 160.085 107.821 174.971 108.628C189.852 109.435 206.073 113.656 221.828 119.9C253.372 132.4 282.798 152.902 295.672 169.92L297.267 168.713C284.094 151.301 254.305 130.619 222.564 118.04C206.677 111.744 190.238 107.453 175.079 106.631C159.925 105.81 145.963 108.452 135.134 116.126L136.291 117.758Z" fill="#87D856" mask="url(#path-11-inside-6_0_1)"/>
<mask id="path-13-inside-7_0_1" fill="white">
<path d="M433.146 48.1562C382.698 41.2562 214.414 77.2488 296.779 168.365C310.258 126.046 382.698 41.2562 433.146 48.1562Z"/>
</mask>
<path d="M296.779 168.365L297.265 168.247L296.357 168.633L296.779 168.365ZM433.078 48.6516C420.561 46.9395 402.875 48.9671 384.095 54.1477C365.323 59.3257 345.506 67.6404 328.731 78.4608C311.95 89.2858 298.258 102.589 291.668 117.725C285.093 132.828 285.563 149.808 297.201 168.097L296.357 168.633C284.549 150.079 284.037 132.748 290.751 117.326C297.452 101.937 311.324 88.4993 328.189 77.6205C345.062 66.737 364.975 58.3844 383.829 53.1837C402.673 47.9855 420.507 45.9229 433.214 47.6608L433.078 48.6516ZM433.078 48.6516C420.587 46.9431 404.988 49.9972 388.8 56.4717C372.621 62.9424 355.9 72.811 341.181 84.6746C326.459 96.5396 313.759 110.384 305.602 124.797C297.445 139.211 293.853 154.152 297.265 168.247L296.293 168.483C292.801 154.06 296.497 138.855 304.732 124.304C312.967 109.753 325.763 95.8164 340.553 83.896C355.345 71.9742 372.152 62.0532 388.429 55.5432C404.696 49.037 420.481 45.9193 433.214 47.6608L433.078 48.6516ZM296.779 168.365L297.732 168.668L297.204 170.326L296.037 169.036L296.779 168.365ZM433.01 49.147C420.542 47.4416 400.68 48.3808 379.148 52.1993C357.628 56.0157 334.54 62.6907 315.614 72.3944C296.655 82.1149 282.062 94.7761 277.2 110.468C272.363 126.077 277.054 145.054 297.521 167.694L296.037 169.036C275.321 146.118 270.161 126.427 275.289 109.876C280.392 93.4093 295.579 80.4193 314.702 70.6147C333.857 60.7931 357.151 54.069 378.799 50.23C400.435 46.3931 420.526 45.4207 433.281 47.1654L433.01 49.147ZM433.01 49.147C420.695 47.4625 406.931 51.3663 392.928 58.9559C378.938 66.5382 364.807 77.7473 351.8 90.5169C325.761 116.081 304.403 147.723 297.732 168.668L295.826 168.061C302.634 146.687 324.236 114.775 350.399 89.0897C363.493 76.2346 377.773 64.8951 391.975 57.1975C406.164 49.5072 420.373 45.3999 433.281 47.1654L433.01 49.147Z" fill="#87D856" mask="url(#path-13-inside-7_0_1)"/>
<path d="M308.591 108.682C308.227 105.015 306.667 102.167 303.909 100.136C301.152 98.1061 297.409 97.0909 292.682 97.0909C289.47 97.0909 286.758 97.5455 284.545 98.4545C282.333 99.3333 280.636 100.561 279.455 102.136C278.303 103.712 277.727 105.5 277.727 107.5C277.667 109.167 278.015 110.621 278.773 111.864C279.561 113.106 280.636 114.182 282 115.091C283.364 115.97 284.939 116.742 286.727 117.409C288.515 118.045 290.424 118.591 292.455 119.045L300.818 121.045C304.879 121.955 308.606 123.167 312 124.682C315.394 126.197 318.333 128.061 320.818 130.273C323.303 132.485 325.227 135.091 326.591 138.091C327.985 141.091 328.697 144.53 328.727 148.409C328.697 154.106 327.242 159.045 324.364 163.227C321.515 167.379 317.394 170.606 312 172.909C306.636 175.182 300.167 176.318 292.591 176.318C285.076 176.318 278.53 175.167 272.955 172.864C267.409 170.561 263.076 167.152 259.955 162.636C256.864 158.091 255.242 152.47 255.091 145.773H274.136C274.348 148.894 275.242 151.5 276.818 153.591C278.424 155.652 280.561 157.212 283.227 158.273C285.924 159.303 288.97 159.818 292.364 159.818C295.697 159.818 298.591 159.333 301.045 158.364C303.53 157.394 305.455 156.045 306.818 154.318C308.182 152.591 308.864 150.606 308.864 148.364C308.864 146.273 308.242 144.515 307 143.091C305.788 141.667 304 140.455 301.636 139.455C299.303 138.455 296.439 137.545 293.045 136.727L282.909 134.182C275.061 132.273 268.864 129.288 264.318 125.227C259.773 121.167 257.515 115.697 257.545 108.818C257.515 103.182 259.015 98.2576 262.045 94.0455C265.106 89.8333 269.303 86.5455 274.636 84.1818C279.97 81.8182 286.03 80.6364 292.818 80.6364C299.727 80.6364 305.758 81.8182 310.909 84.1818C316.091 86.5455 320.121 89.8333 323 94.0455C325.879 98.2576 327.364 103.136 327.455 108.682H308.591ZM355.886 175H334.795L366.932 81.9091H392.295L424.386 175H403.295L379.977 103.182H379.25L355.886 175ZM354.568 138.409H404.386V153.773H354.568V138.409ZM435.591 175V81.9091H455.273V120.318H495.227V81.9091H514.864V175H495.227V136.545H455.273V175H435.591ZM550.773 81.9091V175H531.091V81.9091H550.773ZM566.966 175V81.9091H586.648V158.773H626.557V175H566.966Z" fill="black"/>
</svg>
